<svg width="90" height="90" viewBox="0 0 90 90" fill="none" xmlns="http://www.w3.org/2000/svg">
    <path d="M56.1997 6.57861C57.1997 7.96415 58.3001 10.6367 58.6001 12.5171C58.9001 14.3975 59.5001 16.7728 60.1001 17.6636C60.6001 18.6532 60.6999 21.8202 60.3999 24.5913C60.0999 27.4613 59.2005 30.9254 58.5005 32.311C57.8005 33.6965 55.5002 36.2695 53.3003 38.1499C49.6003 41.3169 49.4997 41.6143 50.1997 46.0679C50.5997 48.5421 51.5003 52.8967 52.3003 55.5688C53.7002 60.3192 53.7003 60.4183 54.3003 57.5483C54.7003 55.9648 55.7005 53.886 56.5005 53.0942C57.9002 51.808 58.1005 51.9073 58.0005 54.3813C58.0004 55.8661 56.9004 60.5178 55.5005 64.6743C54.1005 68.9299 51.8997 73.9775 50.6997 75.8579C49.3998 77.7382 47.6003 80.4099 46.8003 81.7954C46.0003 83.181 43.9999 84.5665 42.3999 84.9624C40.8 85.2593 39.1997 85.3586 38.6997 85.1606C38.3003 84.9622 39.1003 83.5767 40.3999 81.9937C41.6999 80.5091 43.4003 78.2327 44.3003 76.8472C45.1003 75.4616 46.0001 72.0964 46.1001 69.4243C46.3001 66.6532 46.3001 62.4962 46.1001 60.022C45.8001 55.5689 45.8002 55.5689 44.8003 58.5376C44.2004 60.2199 43.2001 62.1002 42.6001 62.8921C42.0001 63.6838 41.3005 67.8409 41.0005 72.2944C40.5005 79.9148 40.4 80.2121 39.1001 77.3423C38.4001 75.6598 37.4005 71.8983 37.0005 68.9292C36.5006 65.8613 36.6002 61.7051 37.1001 59.5278C37.6001 57.3505 38.8998 54.6779 42.1997 51.6099L43.6001 53.5894C44.4001 54.678 45.0005 54.9745 45.0005 54.2817C44.9997 53.6871 43.4992 51.214 41.6997 48.8394C39.7997 46.3651 35.2997 42.9012 30.6997 40.229C26.4998 37.7548 23.2003 35.676 23.3003 35.478C23.4012 35.2803 26.001 35.6763 29.0005 36.27C32.0006 36.8639 37.2006 38.6456 40.5005 40.229C43.7962 41.9093 46.5931 43.1946 46.6997 43.1978C46.8997 43.1978 46.5005 42.3069 46.0005 41.2183C45.5005 40.1297 43.6004 38.4472 42.0005 37.4575C40.3006 36.5669 38.3006 34.3896 37.5005 32.8062C36.8005 31.1237 35.9005 25.5814 35.5005 20.4351C35.2005 15.2887 34.7005 9.84474 34.5005 8.26123C34.1006 6.18329 34.4001 5.58947 35.6997 5.58936C36.6996 5.58936 37.9002 5.88592 38.3003 6.28174C38.8003 6.67761 39.6001 7.07373 40.1001 7.07373C40.6001 7.07373 41.1001 7.47015 41.1001 8.06396C41.2007 8.55947 42.8002 10.8354 44.6997 13.0122C46.4997 15.1895 48.8003 18.5546 49.8003 20.4351C50.7002 22.3156 51.5005 26.1755 51.5005 29.0454C51.5005 32.3112 51.9005 33.7951 52.5005 33.3003C53.0005 32.9038 53.7998 31.2219 54.1997 29.7378C54.4997 28.1543 54.3999 23.1071 53.8999 18.4556C53.3999 13.804 53.2001 8.7562 53.6001 7.07373L54.1997 4.10498L56.1997 6.57861ZM69.3003 15.4858C70.6004 15.3871 73.1004 16.9708 75.3003 19.1479C77.4003 21.2263 80.2001 25.1857 81.6001 27.8579C83 30.629 84.7005 35.4778 85.5005 38.7437C86.5005 43.0983 86.5999 46.0678 85.8999 50.1255C85.3999 53.0943 83.1004 61.3074 82.6001 62.2983C81.7001 64.2777 80.6001 66.5548 80.1001 67.2476C79.5 67.8416 77.9996 69.7215 76.6997 71.4038C75.3996 73.0863 71.3996 76.2532 67.6997 78.6284C63.9999 80.9046 59.8004 83.0824 58.3003 83.3794C56.0003 83.8742 56.2005 83.5765 59.5005 81.5972C61.7006 80.3104 65.9005 77.2428 68.8003 74.8677C71.8003 72.3934 75.4005 68.2364 77.0005 65.4653C78.7004 62.7931 80.6005 58.3398 81.5005 55.5688C82.3005 52.8967 82.8001 49.3333 82.6001 47.6509C82.4001 46.0675 82.1001 44.4839 82.1001 44.187C81.9978 43.8988 78.3925 56.5318 76.5005 60.022C74.3009 64.079 71.5009 67.741 70.5005 68.2368C69.0005 68.2368 72.6005 59.3297 75.0005 55.5688C77.0003 51.1153 77.0004 46.4634 76.5005 39.6343C76.5005 33.0038 76.3001 32.2119 71.8003 25.0864C69.2004 20.9299 67.0007 17.0701 67.0005 16.4761C67.0005 15.9812 68.1003 15.4858 69.3003 15.4858ZM22.3003 9.84521C22.5994 9.84634 20.9996 12.4192 18.6001 15.5854C16.2001 18.6535 13.2997 23.1077 12.1997 25.4829C10.9996 27.761 8.69971 42.5054 8.69971 42.5054C8.69948 43.0445 8.0007 44.9801 9.00049 50.4224L11.1001 46.4644C12.0001 44.584 12.5003 37.7549 12.8003 36.27C12.8003 35.6298 15.1005 27.561 15.5005 27.8579C16 28.8492 15.5005 34.5886 15.5005 37.5571C15.3004 40.6254 13.4005 47.4534 14.0005 50.1255C14.5005 52.8967 15.0004 61.3097 17.0005 62.2993C18.0007 64.1798 21.1002 67.8413 23.8999 70.5132C27.7999 74.076 29.2003 76.1545 29.8003 79.1235C30.3003 82.0924 30.2001 83.0824 29.3003 83.0825C28.6003 83.0825 26.4002 81.994 24.3003 80.7075C22.2003 79.4209 19.2005 77.0449 17.5005 75.4614C15.8005 73.9769 13.0999 70.711 11.3999 68.2368C9.69998 65.7626 7.5005 61.3093 6.50049 58.3403C5.30052 54.7775 4.60013 49.928 4.6001 44.4849C4.6001 38.5467 5.0999 34.5875 6.3999 31.1235C7.49991 28.4514 9.59972 24.2943 11.1997 22.0181C12.7995 19.643 14.0003 17.5652 14.0005 17.2681C14.0005 16.9712 15.7003 15.1895 17.8003 13.3091C19.9002 11.4287 21.9003 9.84521 22.3003 9.84521ZM65.6997 25.3833C66.5997 27.2637 67.3003 31.1233 67.3003 33.7954C67.3003 36.5664 66.7005 39.8326 66.0005 41.2183C65.4005 42.6038 63.5997 44.9788 62.1997 46.4634C60.6998 48.0468 58.3003 49.9274 56.8003 50.7192C55.3013 51.5105 53.9019 52.1042 53.8003 52.105C53.7003 52.2039 53.0002 50.8185 52.3003 49.1362C51.1003 46.3651 51.2999 45.9686 55.1997 41.5151C57.5994 38.8433 59.9994 36.4681 60.6997 36.0718C61.4997 35.577 62.5005 33.5979 63.0005 31.6187C63.6005 29.5403 64.1001 26.5707 64.1001 24.8882L64.1997 21.9194L65.6997 25.3833ZM41.4106 25.5366C40.1106 20.7861 40.0112 20.6873 40.0112 24.0522C39.9114 25.9324 40.5109 28.4059 41.4106 29.4946C42.2103 30.5828 42.8106 31.276 42.811 30.98C42.811 30.6831 42.2106 28.2087 41.4106 25.5366ZM45.8003 1.63037C46.7003 1.63046 48.2002 2.22475 49.1001 2.91748C50.2 3.70924 50.5002 5.39144 50.3003 8.26123C50.1003 10.6359 49.5004 12.5161 49.0005 12.5171C48.5005 12.5171 46.7001 10.8344 45.1001 8.85498C42.9003 5.98505 42.4001 4.69818 43.1001 3.41162C43.7002 2.42209 44.9004 1.63037 45.8003 1.63037Z" fill="#52AE77"/>
    <circle cx="45" cy="45" r="44.5" stroke="#52AE77"/>
</svg>
